<svg preserveAspectRatio="none" width="100%" height="100%" overflow="visible" style="display: block;" viewBox="0 0 60 60" fill="none" xmlns="http://www.w3.org/2000/svg">
<g id="Messenger Icon">
<path id="Background" fill-rule="evenodd" clip-rule="evenodd" d="M39.0815 0C45.105 0 48.116 0 51.3585 1.025C54.8985 2.3135 57.6865 5.1015 58.975 8.6415C60 11.8835 60 14.8955 60 20.9185V39.0815C60 45.105 60 48.116 58.975 51.3585C57.6865 54.8985 54.8985 57.6865 51.3585 58.9745C48.116 60 45.105 60 39.0815 60H20.9185C14.895 60 11.8835 60 8.6415 58.9745C5.1015 57.6865 2.3135 54.8985 1.025 51.3585C0 48.116 0 45.105 0 39.0815V20.9185C0 14.8955 0 11.8835 1.025 8.6415C2.3135 5.1015 5.1015 2.3135 8.6415 1.025C11.8835 0 14.895 0 20.9185 0H39.0815Z" fill="var(--fill-0, white)"/>
<g id="logo">
<g id="bounding box">
</g>
<g id="logo_2">
<path id="Path" fill-rule="evenodd" clip-rule="evenodd" d="M29.7188 9C18.0473 9 9 17.5494 9 29.0972C9 35.1374 11.4755 40.3569 15.5068 43.9621C15.8453 44.265 16.0496 44.6893 16.0634 45.1434L16.1763 48.8289C16.2123 50.0045 17.4266 50.7694 18.5023 50.2945L22.6147 48.4792C22.9633 48.3254 23.354 48.2968 23.7213 48.3979C25.6111 48.9176 27.6223 49.1944 29.7188 49.1944C41.3902 49.1944 50.4375 40.645 50.4375 29.0972C50.4375 17.5494 41.3902 9 29.7188 9Z" fill="url(#paint0_radial_0_127)"/>
<path id="Path_2" fill-rule="evenodd" clip-rule="evenodd" d="M17.2775 34.9745L23.3636 25.3187C24.3317 23.7826 26.4048 23.4001 27.8574 24.4895L32.698 28.12C33.1422 28.4531 33.7532 28.4514 34.1955 28.1157L40.733 23.1542C41.6056 22.492 42.7446 23.5363 42.1606 24.4629L36.0745 34.1188C35.1063 35.6548 33.0332 36.0373 31.5807 34.9479L26.7399 31.3173C26.2959 30.9842 25.6847 30.986 25.2425 31.3217L18.705 36.2832C17.8325 36.9453 16.6934 35.9011 17.2775 34.9745Z" fill="var(--fill-0, white)"/>
</g>
</g>
</g>
<defs>
<radialGradient id="paint0_radial_0_127" cx="0" cy="0" r="1" gradientUnits="userSpaceOnUse" gradientTransform="translate(16.9757 50.2158) scale(45.1501 45.1501)">
<stop stop-color="#0099FF"/>
<stop offset="0.609754" stop-color="#A033FF"/>
<stop offset="0.934823" stop-color="#FF5280"/>
<stop offset="1" stop-color="#FF7061"/>
</radialGradient>
</defs>
</svg>
