<svg preserveAspectRatio="none" width="100%" height="100%" overflow="visible" style="display: block;" viewBox="0 0 14.9165 13.2477" fill="none" xmlns="http://www.w3.org/2000/svg">
<path id="Ico" d="M7.85931 13.2477C8.21325 13.2477 8.50219 13.1032 8.84891 12.7781L14.5482 7.39673C14.8226 7.13669 14.9165 6.8622 14.9165 6.62383C14.9165 6.37824 14.8299 6.11097 14.5482 5.84371L8.84891 0.51286C8.46607 0.151691 8.2277 0 7.87375 0C7.36812 0 7.00695 0.397286 7.00695 0.881252V3.61169H6.79747C4.16663 3.61169 0.602537 6.12361 0.0036242 12.0282C-0.0579749 12.6355 0.680447 12.9197 1.09315 12.4699C3.24134 10.1289 4.32889 9.6432 6.79747 9.6432H7.00695V12.4025C7.00695 12.8865 7.36812 13.2477 7.85931 13.2477Z" fill="var(--fill-0, #F4F4F4)"/>
</svg>
