<svg preserveAspectRatio="none" width="100%" height="100%" overflow="visible" style="display: block;" viewBox="0 0 60 60" fill="none" xmlns="http://www.w3.org/2000/svg">
<g id="Whatsapp Icon">
<path id="Mask" fill-rule="evenodd" clip-rule="evenodd" d="M39.0815 0C45.105 0 48.116 0 51.3585 1.025C54.8985 2.3135 57.6865 5.1015 58.975 8.6415C60 11.8835 60 14.8955 60 20.9185V39.0815C60 45.105 60 48.116 58.975 51.3585C57.6865 54.8985 54.8985 57.6865 51.3585 58.9745C48.116 60 45.105 60 39.0815 60H20.9185C14.895 60 11.8835 60 8.6415 58.9745C5.1015 57.6865 2.3135 54.8985 1.025 51.3585C0 48.116 0 45.105 0 39.0815V20.9185C0 14.8955 0 11.8835 1.025 8.6415C2.3135 5.1015 5.1015 2.3135 8.6415 1.025C11.8835 0 14.895 0 20.9185 0H39.0815Z" fill="var(--fill-0, #25D366)"/>
<path id="Vector" d="M43.2872 16.6359C39.7613 13.1063 35.0733 11.1619 30.0783 11.1595C19.7873 11.1595 11.4098 19.5352 11.4066 29.8303C11.4047 33.1219 12.2648 36.3342 13.8984 39.1645L11.25 48.8405L21.1477 46.2445C23.8753 47.7309 26.9456 48.5152 30.0708 48.5166H30.0788C40.3697 48.5166 48.7458 40.1395 48.75 29.8448C48.7524 24.8564 46.8113 20.1652 43.2872 16.6359ZM30.0788 45.3628H30.0727C27.2869 45.3619 24.5559 44.6137 22.1728 43.2L21.6061 42.8634L15.7327 44.4042L17.2997 38.678L16.9308 38.0892C15.3769 35.6189 14.5561 32.7637 14.558 29.8303C14.5608 21.2742 21.5231 14.3128 30.0834 14.3128C34.2291 14.3137 38.1248 15.9305 41.0555 18.8644C43.9856 21.7978 45.5981 25.6964 45.5972 29.8434C45.5944 38.4009 38.632 45.3628 30.0788 45.3628ZM38.5913 33.7402C38.1244 33.5062 35.8308 32.3789 35.4028 32.2219C34.9748 32.0662 34.665 31.9889 34.3538 32.4558C34.0425 32.9227 33.1486 33.9741 32.8758 34.2853C32.6039 34.5966 32.332 34.6359 31.8652 34.402C31.3983 34.1681 29.8955 33.6759 28.1147 32.0859C26.7272 30.8498 25.7906 29.3208 25.5188 28.8539C25.2469 28.387 25.4897 28.1353 25.7236 27.9023C25.9336 27.6933 26.1905 27.3577 26.4234 27.0848C26.6564 26.812 26.7342 26.6175 26.8898 26.3067C27.0455 25.9955 26.9681 25.7231 26.8509 25.4897C26.7338 25.2558 25.8009 22.9594 25.4128 22.0252C25.0336 21.1153 24.6492 21.2386 24.3633 21.2245C24.0905 21.2114 23.7797 21.2077 23.4689 21.2077C23.1581 21.2077 22.6523 21.3244 22.2248 21.7917C21.7978 22.2586 20.5922 23.3869 20.5922 25.6842C20.5922 27.9802 22.2638 30.1992 22.4972 30.51C22.7306 30.8208 25.7869 35.5341 30.4669 37.5548C31.5797 38.0348 32.4492 38.3222 33.1266 38.5378C34.2441 38.8936 35.2613 38.8425 36.0656 38.7225C36.9619 38.5889 38.8256 37.5942 39.2152 36.5044C39.6038 35.415 39.6038 34.4812 39.4861 34.2862C39.3684 34.0908 39.0572 33.9741 38.5913 33.7402Z" fill="var(--fill-0, white)"/>
</g>
</svg>
